<svg width="36" height="36" viewBox="0 0 36 36" fill="none" xmlns="http://www.w3.org/2000/svg">
<g filter="url(#filter0_d_81_704)">
<path fill-rule="evenodd" clip-rule="evenodd" d="M17 0C15.8954 0 15 0.89543 15 2V3.55656C15 4.02028 14.6799 4.4192 14.2359 4.55327C13.4063 4.80382 12.6117 5.13504 11.8612 5.53781C11.4526 5.75711 10.9441 5.7014 10.6162 5.37348L9.5148 4.27206C8.73375 3.49101 7.46742 3.49101 6.68637 4.27206L5.27215 5.68627C4.49111 6.46732 4.49111 7.73365 5.27215 8.5147L6.37354 9.61609C6.70147 9.94401 6.75718 10.4525 6.53787 10.8611C6.13507 11.6116 5.80383 12.4063 5.55327 13.2359C5.4192 13.6799 5.02029 14 4.55656 14H3C1.89543 14 1 14.8954 1 16V18C1 19.1046 1.89543 20 3 20H4.55656C5.02028 20 5.4192 20.3201 5.55327 20.7641C5.80382 21.5937 6.13506 22.3883 6.53785 23.1388C6.75716 23.5475 6.70144 24.0559 6.37352 24.3839L5.27212 25.4853C4.49107 26.2663 4.49107 27.5326 5.27212 28.3137L6.68633 29.7279C7.46738 30.509 8.73371 30.509 9.51476 29.7279L10.6162 28.6265C10.9441 28.2986 11.4526 28.2429 11.8612 28.4622C12.6117 28.865 13.4063 29.1962 14.2359 29.4467C14.6799 29.5808 15 29.9797 15 30.4434V32C15 33.1046 15.8954 34 17 34H19C20.1046 34 21 33.1046 21 32V30.4434C21 29.9797 21.3201 29.5808 21.7641 29.4467C22.5937 29.1962 23.3884 28.8649 24.1389 28.4621C24.5475 28.2428 25.056 28.2985 25.3839 28.6265L26.4854 29.7279C27.2664 30.509 28.5327 30.509 29.3138 29.7279L30.728 28.3137C31.509 27.5326 31.509 26.2663 30.728 25.4853L29.6265 24.3838C29.2986 24.0559 29.2429 23.5474 29.4622 23.1388C29.865 22.3883 30.1962 21.5937 30.4467 20.7641C30.5808 20.3201 30.9797 20 31.4434 20H33C34.1046 20 35 19.1046 35 18V16C35 14.8954 34.1046 14 33 14H31.4434C30.9797 14 30.5808 13.6799 30.4467 13.2359C30.1962 12.4063 29.865 11.6117 29.4622 10.8612C29.2429 10.4526 29.2986 9.94409 29.6265 9.61617L30.728 8.5147C31.509 7.73365 31.509 6.46732 30.728 5.68628L29.3137 4.27206C28.5327 3.49101 27.2664 3.49101 26.4853 4.27206L25.3839 5.37352C25.0559 5.70145 24.5475 5.75716 24.1388 5.53785C23.3883 5.13506 22.5937 4.80382 21.7641 4.55327C21.3201 4.4192 21 4.02029 21 3.55656V2C21 0.895431 20.1046 0 19 0H17ZM18 23C21.3137 23 24 20.3137 24 17C24 13.6863 21.3137 11 18 11C14.6863 11 12 13.6863 12 17C12 20.3137 14.6863 23 18 23Z" fill="white"/>
</g>
<defs>
<filter id="filter0_d_81_704" x="0" y="0" width="36" height="36" filterUnits="userSpaceOnUse" color-interpolation-filters="sRGB">
<feFlood flood-opacity="0" result="BackgroundImageFix"/>
<feColorMatrix in="SourceAlpha" type="matrix" values="0 0 0 0 0 0 0 0 0 0 0 0 0 0 0 0 0 0 127 0" result="hardAlpha"/>
<feOffset dy="1"/>
<feGaussianBlur stdDeviation="0.5"/>
<feColorMatrix type="matrix" values="0 0 0 0 0 0 0 0 0 0 0 0 0 0 0 0 0 0 0.25 0"/>
<feBlend mode="normal" in2="BackgroundImageFix" result="effect1_dropShadow_81_704"/>
<feBlend mode="normal" in="SourceGraphic" in2="effect1_dropShadow_81_704" result="shape"/>
</filter>
</defs>
</svg>
